<svg xmlns="http://www.w3.org/2000/svg" viewBox="0 0 24 24">
  <path d="M11.93 13.439c-.435 0-.79-.378-.79-.844 0-.465.355-.843.79-.843.436 0 .79.378.79.843 0 .466-.354.844-.79.844zm0-3.376c-1.307 0-2.37 1.132-2.37 2.532 0 1.4 1.063 2.532 2.37 2.532 1.308 0 2.37-1.132 2.37-2.532 0-1.4-1.062-2.532-2.37-2.532zm0 6.764c-2.18 0-3.95-1.887-3.95-4.232 0-2.345 1.77-4.232 3.95-4.232 2.18 0 3.95 1.887 3.95 4.232 0 2.345-1.77 4.232-3.95 4.232zm0-10.464c-3.052 0-5.53 2.642-5.53 5.896 0 3.254 2.478 5.896 5.53 5.896 3.053 0 5.53-2.642 5.53-5.896 0-3.254-2.477-5.896-5.53-5.896zm0 13.728c-3.925 0-7.11-3.398-7.11-7.832 0-4.434 3.185-7.832 7.11-7.832 3.926 0 7.11 3.398 7.11 7.832 0 4.434-3.184 7.832-7.11 7.832z" fill="#010101"/>
</svg>

